<svg width="209" height="209" viewBox="0 0 209 209" fill="none" xmlns="http://www.w3.org/2000/svg">
<path id="Logo" fill="green" d="M104.501 0C46.6335 0 0 46.6333 0 104.5C0 162.365 46.6335 209 104.501 209C162.365 209 209 162.365 209 104.5C209 46.6333 162.365 0 104.501 0ZM147.11 153.544C145.507 153.544 143.874 152.726 142.271 151.911C127.016 143.088 108.523 138.257 88.4277 138.257C77.1853 138.257 65.9128 139.862 55.4566 142.271C53.8533 142.271 51.4337 143.088 50.6468 143.088C46.6335 143.088 44.2139 139.862 44.2139 136.654C44.2139 132.632 46.6335 130.221 49.8305 129.434C62.7059 126.198 75.5519 124.595 89.2444 124.595C111.721 124.595 132.631 130.212 150.318 140.677C152.727 142.271 154.33 143.874 154.33 147.897C153.544 151.135 150.318 153.544 147.11 153.544ZM158.354 126.198C155.935 126.198 154.33 125.412 152.727 124.595C135.839 114.139 112.536 107.705 86.0081 107.705C73.1628 107.705 61.1027 109.339 52.2501 111.719C49.8305 112.536 49.0436 112.536 47.4107 112.536C42.6106 112.536 39.3745 108.522 39.3745 104.5C39.3745 99.6604 41.7942 97.2797 45.8173 95.648C57.8667 92.4405 69.9258 90.0209 86.8248 90.0209C114.14 90.0209 140.678 96.463 161.59 109.339C164.786 110.933 166.389 114.139 166.389 117.375C166.389 122.176 163.183 126.198 158.354 126.198ZM171.23 94.0434C168.809 94.0434 167.994 93.2572 165.605 92.4405C146.295 81.1982 117.377 74.7645 89.2444 74.7645C74.7657 74.7645 60.2863 76.3675 47.4107 79.5648C45.8171 79.5648 44.2139 80.3815 41.7942 80.3815C36.1778 81.1982 32.1546 76.3675 32.1546 70.742C32.1546 65.1255 35.3614 61.8893 39.3745 61.1023C54.6697 56.2729 70.7423 54.6695 89.2444 54.6695C119.756 54.6695 151.91 61.1023 176.029 74.7645C179.265 76.3675 181.684 79.5648 181.684 84.404C180.868 90.0209 176.845 94.0434 171.23 94.0434Z"/>
</svg>
